<?xml version="1.0" encoding="utf-8"?>
<!-- Generator: Adobe Illustrator 23.0.1, SVG Export Plug-In . SVG Version: 6.00 Build 0)  -->
<svg version="1.1" id="Capa_1" xmlns="http://www.w3.org/2000/svg" xmlns:xlink="http://www.w3.org/1999/xlink" x="0px" y="0px"
	 viewBox="0 0 612 592.99" style="enable-background:new 0 0 612 592.99;" xml:space="preserve">
<style type="text/css">
	.st0{fill-rule:evenodd;clip-rule:evenodd;}
	.st1{fill-rule:evenodd;clip-rule:evenodd;fill:#909296;}
	.st2{fill-rule:evenodd;clip-rule:evenodd;fill:#003578;}
	.st3{fill-rule:evenodd;clip-rule:evenodd;fill:#BB1319;}
	.st4{fill-rule:evenodd;clip-rule:evenodd;fill:#003577;}
	.st5{fill-rule:evenodd;clip-rule:evenodd;fill:#FFFFFF;}
	.st6{fill-rule:evenodd;clip-rule:evenodd;fill:#EBECEE;}
	.st7{fill:#FFFFFF;}
	.st8{fill:none;}
</style>
<path class="st0" d="M505.78,398.77c-3.48,74.48,41.07,138.2,41.07,138.2s-18.11,7.03-89.41,5.12
	c-71.29-1.89-88.76-19.41-97.29-19.01c-10.75,0.48-60.53,47.8-60.53,47.8s-49.75-47.31-60.53-47.8
	c-8.52-0.4-26.02,17.12-97.29,19.01c-71.29,1.91-89.69-0.95-89.69-0.95c43.18-86.85,50.51-131.61,36.88-193.12
	c-13.02-58.99-35.45-83.09-35.45-83.09s46.5,6.18,101.92-15.23c37.08-14.33,49.29-31.38,49.29-31.38l94.87,0.47l94.86-0.47
	c0,0,12.23,17.06,49.31,31.38c55.42,21.41,103.41,14.7,103.41,14.7S509.31,323.19,505.78,398.77"/>
<path class="st0" d="M307.13,67.13c0,0-13.85,82.95-39.83,82.66c-27.53-0.33-53.04-34.28-53.04-34.28s2.3,44.08-9.16,48.7
	c-11.44,4.62-54.24-34.26-54.24-34.26l48.7,90.74l214.85,1l51.67-96.85c0,0-43.27,41.52-58.86,37.86
	c-15.62-3.66-5.42-47.18-5.42-47.18s-34.58,33.11-58.3,33.36C319.37,149.11,307.13,67.13,307.13,67.13"/>
<path class="st1" d="M307.13,67.13c0,0-5.57,97.36-35.97,96.48c-27.55-0.83-57.1-47.44-57.1-47.44s9.53,51.73-3.08,57.11
	c-14.56,6.25-61.08-43.05-61.08-43.05l47.78,90.46l217.7,1l53.88-102.48c0,0-50.21,54.58-65.82,50.93
	c-15.6-3.65-2.49-55.19-2.49-55.19s-35.36,48.41-61.75,48.41C313.72,163.36,307.13,67.13,307.13,67.13"/>
<path class="st2" d="M209.63,226.79c0,0-11.75,16.18-47.34,29.76c-53.21,20.28-97.83,14.42-97.83,14.42s20.69,34.37,27.03,57.25
	c10.83,38.89,11.28,76.64,11.28,76.64h197.9V227.24L209.63,226.79z"/>
<path class="st3" d="M63.12,532.79c0,0,20.23-28.4,30.98-66.71c10.76-38.32,8.69-61.55,8.69-61.55l197.9,0.23v156.2
	c0,0-47.77-44.86-58.11-45.31c-8.19-0.37-24.97,16.23-93.38,18.03C80.77,535.48,63.12,532.79,63.12,532.79"/>
<path class="st3" d="M391.74,226.79c0,0,11.72,16.18,47.33,29.76c53.17,20.28,97.8,14.42,97.8,14.42s-19.69,34.68-27.04,57.25
	c-9.95,30.52-11.26,76.64-11.26,76.64H300.68V227.24L391.74,226.79z"/>
<path class="st2" d="M537.21,532.79c0,0-20.23-28.4-30.97-66.71c-10.78-38.32-8.7-61.55-8.7-61.55l-197.87,0.23v156.2
	c0,0,47.77-44.86,58.11-45.31c8.16-0.37,24.94,16.23,93.36,18.03C519.56,535.48,537.21,532.79,537.21,532.79"/>
<polygon class="st3" points="340.77,53.99 307.19,87.54 273.62,53.99 307.19,20.4 "/>
<polygon class="st4" points="420.6,76.96 390.38,92.57 392.09,129.84 422.55,113.51 "/>
<polygon class="st4" points="452.78,110.59 453.96,137.15 480.06,134.47 502.48,103.04 500.77,76.96 474.47,81.6 "/>
<polygon class="st4" points="190.57,74.52 220.79,90.11 219.08,127.41 188.63,111.08 "/>
<polygon class="st4" points="160.59,112.52 159.38,139.08 133.3,136.41 110.89,104.99 112.61,78.91 138.92,83.55 "/>
<polygon class="st5" points="305.37,160.78 309.63,169.48 319.26,170.89 312.31,177.66 313.95,187.25 305.37,182.71 296.76,187.25 
	298.4,177.66 291.44,170.89 301.06,169.48 "/>
<path class="st5" d="M264.42,181.39c0-2.76,2.23-4.99,4.98-4.99c2.75,0,4.99,2.24,4.99,4.99c0,2.77-2.23,5-4.99,5
	C266.65,186.39,264.42,184.16,264.42,181.39"/>
<path class="st5" d="M336.53,181.14c0-2.74,2.25-5,5-5c2.75,0,5,2.26,5,5c0,2.77-2.24,5.01-5,5.01
	C338.78,186.15,336.53,183.92,336.53,181.14"/>
<path class="st5" d="M368.95,186.99c0-2.76,2.26-4.99,4.99-4.99c2.76,0,5,2.23,5,4.99c0,2.77-2.24,5-5,5
	C371.21,191.99,368.95,189.76,368.95,186.99"/>
<path class="st5" d="M400.14,196.25c0-2.77,2.23-4.97,4.99-4.97c2.75,0,4.98,2.2,4.98,4.97c0,2.77-2.22,5.02-4.98,5.02
	C402.37,201.27,400.14,199.02,400.14,196.25"/>
<path class="st5" d="M231.27,186.99c0-2.76,2.25-4.99,5-4.99c2.75,0,4.99,2.23,4.99,4.99c0,2.75-2.24,5-4.99,5
	C233.52,191.99,231.27,189.74,231.27,186.99"/>
<path class="st5" d="M200.58,196.24c0-2.76,2.24-4.98,4.99-4.98c2.76,0,4.98,2.22,4.98,4.98c0,2.75-2.22,5-4.98,5
	C202.82,201.25,200.58,198.99,200.58,196.24"/>
<rect x="198.14" y="227.03" class="st1" width="216.85" height="17.08"/>
<path class="st6" d="M417.02,224.09c0,2.23,0.26,4.06-2.89,4.06H200.43c-3.15,0-3.76-1.83-3.76-4.06c0-2.26,0.61-4.08,3.76-4.08
	h213.69C417.28,220.01,417.02,221.83,417.02,224.09"/>
<path class="st7" d="M210.89,314.67h12.84v-12.84c0-10.21-12.46-21.42-22.84-21.42h-36.21c-11.25,0-23.2,8.58-23.2,23.23v59.06
	c0,12.6,8.33,26.35,20.74,26.35c12.38,0,27.71-0.44,38.07-0.44c10.36,0,23-9.09,23-22.78v-15.75h-12.34c0,0,0.17,11.92,0.17,16.22
	c0,4.26-4.29,10.58-13.3,10.58h-30.89c-6.75,0-13.51-3.61-13.51-16.46V308.3c0-9.93,8.33-17.72,17.14-17.72
	c8.78,0,15.53,0.21,22.52,0.21c8.26,0,17.74,3.24,17.74,13.45C210.82,311.22,210.89,314.67,210.89,314.67"/>
<path class="st7" d="M326.27,310.96l12.41-0.11v-12.41c0-11.27-10.27-19.15-21.76-19.15h-36.75c-10.81,0-22.86,8.33-22.86,19.37
	c0,11.06-0.11,11.83-0.11,19.29c0,7.42,8.45,20.73,21.05,20.73h34.05c8.1,0,14.65,1.45,14.65,9.56v15.11
	c0,6.53,1.34,14.19-12.41,14.19h-29.97c-7.46,0-16.46-3.81-16.46-12.61v-13.52h-13.06v13.17c0,15.56,12.38,24.24,22.54,24.24
	c10.14,0,29.19-0.11,39.1-0.11c9.92,0,22.41-5.3,22.41-19.96c0-14.64-0.21-11.93-0.21-21.86c0-9.9-7.89-18.7-21.19-18.7h-30.88
	c-8.79,0-16.89-3.82-16.89-14.42s-0.23-4.05-0.23-11.72c0-7.67,7.89-11.03,14.42-11.03h27.26c7.89,0,14.88,5.62,14.88,11.25V310.96z
	"/>
<g>
	<path d="M140.96,362.68v-59.05c0.01-14.97,12.2-23.72,23.71-23.73h36.21c10.72,0.06,23.27,11.31,23.35,21.93v12.84v0.5h-13.35v-0.5
		l0.5,0l-0.5,0v0.5h-0.49l-0.02-0.49c0-0.01-0.07-3.47-0.07-10.46c-0.02-9.79-9.02-12.91-17.22-12.94c-6.99,0-13.75-0.22-22.52-0.22
		c-8.53,0.02-16.63,7.58-16.65,17.22c0,9.9,0,39.29,0.01,52.13c0.07,12.65,6.43,15.85,13,15.95c6.76-0.02,21.88-0.02,30.89-0.02
		c8.77-0.01,12.79-6.12,12.79-10.07c0-4.29-0.16-16.2-0.16-16.21l-0.02-0.52h13.38v0.51v15.76c-0.04,14.04-12.89,23.28-23.53,23.29
		c-10.35,0-25.68,0.43-38.06,0.43C149.38,389.5,140.97,375.48,140.96,362.68 M141.97,303.64v59.05
		c0.03,12.42,8.26,25.83,20.25,25.85c12.37,0,27.69-0.42,38.06-0.42c10.12-0.02,22.47-8.93,22.5-22.28v-15.26h-11.31
		c0.03,2.34,0.16,11.96,0.16,15.72c0,4.57-4.54,11.09-13.81,11.09h-30.89c-6.95-0.02-14.01-3.91-14.02-16.96V308.3
		c0.01-10.21,8.55-18.23,17.66-18.23c8.78,0,15.53,0.21,22.52,0.21c8.33,0.02,18.22,3.33,18.23,13.96c0,5.46,0.05,8.77,0.07,9.94
		h11.84v-12.34c-0.02-9.84-12.29-20.9-22.33-20.92h-36.21C153.65,280.93,142,289.28,141.97,303.64"/>
	<path d="M254.55,364.59v-13.17v-0.51h14.08v0.51v13.5c0.02,8.39,8.63,12.11,15.96,12.11h29.97c11.3-0.12,11.81-4.9,11.93-10.44
		c0-1.07-0.03-2.16-0.03-3.23v-15.12c-0.01-7.69-6.02-9.01-14.14-9.08c-8.13,0-21.41,0-34.05,0.02
		c-12.99-0.08-21.53-13.5-21.55-21.23c0-7.48,0.1-8.23,0.1-19.29c0.05-11.45,12.33-19.87,23.37-19.88h36.75
		c11.71,0.01,22.24,8.04,22.26,19.65v12.42v0.5l-12.91,0.11v-0.5v0.5l-0.51,0v-0.5v-8.69c-0.02-5.2-6.69-10.74-14.37-10.74h-27.26
		c-6.42,0-13.9,3.29-13.91,10.52c0,7.62,0.22,1.1,0.22,11.72c0.04,10.26,7.71,13.86,16.39,13.93h30.88
		c13.53,0.02,21.68,9.01,21.7,19.18c0,9.9,0.21,7.22,0.21,21.87c0,15.03-12.84,20.46-22.92,20.47c-9.9,0-28.95,0.11-39.1,0.11
		C267.19,389.31,254.56,380.44,254.55,364.59 M255.57,364.59c0.03,15.26,12.15,23.73,22.02,23.73c10.14,0.01,29.2-0.11,39.1-0.11
		c9.8-0.03,21.89-5.15,21.91-19.45c0-14.62-0.2-11.93-0.2-21.87c-0.02-9.61-7.64-18.16-20.7-18.18h-30.88
		c-8.89-0.01-17.38-4.01-17.4-14.93c0-10.57-0.23-4-0.23-11.72c0.04-8.1,8.27-11.53,14.93-11.54h27.26
		c8.11,0.03,15.32,5.71,15.39,11.76v8.18l11.39-0.1v-11.92c-0.02-10.92-9.98-18.62-21.24-18.62c-9.46-0.01-25.93-0.01-36.75-0.01
		c-10.58,0.02-22.33,8.22-22.37,18.87c0,11.06-0.11,11.84-0.11,19.29c0.03,7.12,8.33,20.19,20.56,20.22h34.05
		c8.07,0.01,15.13,1.55,15.15,10.07v15.12c0,1.05,0.04,2.15,0.04,3.23c0,2.83-0.22,5.67-2.03,7.91c-1.81,2.2-5.11,3.57-10.93,3.56
		h-29.97c-7.57-0.02-16.95-3.89-16.98-13.14v-10.05v-2.94h-12.04V364.59z"/>
	<path class="st7" d="M424.77,280.64h-19.16l-40.57,107.07h14.19l9.48-27.97h53.18l9.69,27.74h12.84L424.77,280.64z M392.77,348.93
		l20.45-56.13l4.79,0.11l19.82,56.02H392.77z"/>
</g>
<path d="M364.3,388.21l40.97-108.08h19.52v0.51l-0.49,0.17l0.49-0.17v-0.51h0.35l40.03,107.86h-13.93l-9.68-27.75H389.1l-9.5,27.97
	H364.3z M365.76,387.2h13.13l9.46-27.96h53.92l9.69,27.73h11.74l-39.29-105.82h-18.45L365.76,387.2z M392.76,349.44v-0.51l0.47,0.18
	l-0.47-0.18V349.44h-0.72l20.82-57.15l0.37,0l5.15,0.11l20.18,57.04H392.76z M437.12,348.43l-19.46-55.01l-4.08-0.1l-20.09,55.11
	H437.12z"/>
<rect class="st8" width="612" height="792"/>
</svg>
